# xmcd
#
# Track frame offsets:
#	150
#	12878
#	27082
#	40132
#	56907
#	75133
#	90071
#	104223
#	120810
#	136271
#	154310
#	171526
#	188231
#	203260
#	223175
#	251349
#
# Disc length: 3366 seconds
#
# Revision: 1
# Processed by: cddbd v1.5.2PL0 Copyright (c) Steve Scherf et al.
# Submitted via: audiograbber 1.83.01
#
DISCID=c60d2410
DTITLE=Joe Diffie - CB90260
DYEAR=2005
DGENRE=Karaoke
TTITLE0=C.O.U.N.T.R.Y.
TTITLE1=It's Always Something
TTITLE2=Texas Size Heartache
TTITLE3=Quittin' Kind, The
TTITLE4=Something Like This
TTITLE5=Tougher Than Nails
TTITLE6=Whole Lotta Gone
TTITLE7=Night To Remember, A
TTITLE8=Home
TTITLE9=In Another World
TTITLE10=In My Own Backyard
TTITLE11=Promised Land, The
TTITLE12=Startin' Over Blues
TTITLE13=That Road Not Taken
TTITLE14=This Is Your Brain
TTITLE15=CB90260-16 - DATA
EXTD=Existing Submission is NOT Usable
EXTT0=
EXTT1=
EXTT2=
EXTT3=
EXTT4=
EXTT5=
EXTT6=
EXTT7=
EXTT8=
EXTT9=
EXTT10=
EXTT11=
EXTT12=
EXTT13=
EXTT14=
EXTT15=
PLAYORDER=
